<svg width="24" height="24" viewBox="0 0 24 24" fill="none" xmlns="http://www.w3.org/2000/svg">
<path d="M21 7.35309V16.647C21 16.8649 20.8819 17.0656 20.6914 17.1715L12.2914 21.8381C12.1102 21.9388 11.8898 21.9388 11.7086 21.8381L3.30863 17.1715C3.11816 17.0656 3.00002 16.8649 3.00002 16.647L3 7.35309C3 7.13519 3.11814 6.93442 3.30862 6.8286L11.7086 2.16193C11.8898 2.06126 12.1102 2.06126 12.2914 2.16193L20.6914 6.8286C20.8818 6.93442 21 7.13519 21 7.35309Z" stroke="#21272A" stroke-width="1.5" stroke-linecap="round" stroke-linejoin="round"/>
<path d="M3.52832 7.29363L11.7085 11.8382C11.8897 11.9389 12.1101 11.9389 12.2913 11.8382L20.4999 7.27783" stroke="#21272A" stroke-width="1.5" stroke-linecap="round" stroke-linejoin="round"/>
<path d="M12 21V12" stroke="#21272A" stroke-width="1.5" stroke-linecap="round" stroke-linejoin="round"/>
<path d="M11.6914 11.8286L3.89139 7.49531C3.49147 7.27314 3 7.56232 3 8.01981V16.6471C3 16.865 3.11813 17.0657 3.30861 17.1716L11.1086 21.5049C11.5085 21.7271 12 21.4379 12 20.9804V12.3531C12 12.1352 11.8819 11.9345 11.6914 11.8286Z" fill="#21272A" stroke="#21272A" stroke-width="1.5" stroke-linejoin="round"/>
</svg>
