<svg width="24" height="24" viewBox="0 0 24 24" fill="none" xmlns="http://www.w3.org/2000/svg">
<path d="M12 23C12.5523 23 13 22.5523 13 22C13 21.4477 12.5523 21 12 21C11.4477 21 11 21.4477 11 22C11 22.5523 11.4477 23 12 23Z" fill="#21272A" stroke="#21272A" stroke-width="1.5" stroke-linecap="round" stroke-linejoin="round"/>
<path d="M3 8C3.55228 8 4 7.55228 4 7C4 6.44772 3.55228 6 3 6C2.44772 6 2 6.44772 2 7C2 7.55228 2.44772 8 3 8Z" fill="#21272A" stroke="#21272A" stroke-width="1.5" stroke-linecap="round" stroke-linejoin="round"/>
<path d="M3 18C3.55228 18 4 17.5523 4 17C4 16.4477 3.55228 16 3 16C2.44772 16 2 16.4477 2 17C2 17.5523 2.44772 18 3 18Z" fill="#21272A" stroke="#21272A" stroke-width="1.5" stroke-linecap="round" stroke-linejoin="round"/>
<path d="M21 7.35309V16.647C21 16.8649 20.8819 17.0656 20.6914 17.1715L12.2914 21.8381C12.1102 21.9388 11.8898 21.9388 11.7086 21.8381L3.30863 17.1715C3.11816 17.0656 3.00002 16.8649 3.00002 16.647L3 7.35309C3 7.13519 3.11814 6.93442 3.30862 6.8286L11.7086 2.16193C11.8898 2.06126 12.1102 2.06126 12.2914 2.16193L20.6914 6.8286C20.8818 6.93442 21 7.13519 21 7.35309Z" stroke="#21272A" stroke-width="1.5" stroke-linecap="round" stroke-linejoin="round"/>
<path d="M3.52832 7.29363L11.7085 11.8382C11.8897 11.9388 12.1101 11.9388 12.2913 11.8382L20.4999 7.27783" stroke="#21272A" stroke-width="1.5" stroke-linecap="round" stroke-linejoin="round"/>
<path d="M12 21V12" stroke="#21272A" stroke-width="1.5" stroke-linecap="round" stroke-linejoin="round"/>
</svg>
