<svg width="24" height="24" viewBox="0 0 24 24" fill="none" xmlns="http://www.w3.org/2000/svg">
<path d="M14.8706 11.4336L17 15M13.5 9V13V9ZM13.5 15V13V15ZM13.5 13L14.8706 11.4336L13.5 13ZM17 9L14.8706 11.4336L17 9Z" stroke="#21272A" stroke-width="1.5" stroke-linecap="round" stroke-linejoin="round"/>
<path d="M9.5 9L6.5 13.5H10V15" stroke="#21272A" stroke-width="1.5" stroke-linecap="round" stroke-linejoin="round"/>
<path d="M2 18.4V5.6C2 5.26863 2.26863 5 2.6 5H21.4C21.7314 5 22 5.26863 22 5.6V18.4C22 18.7314 21.7314 19 21.4 19H2.6C2.26863 19 2 18.7314 2 18.4Z" stroke="#21272A" stroke-width="1.5"/>
</svg>
