<svg width="24" height="24" viewBox="0 0 24 24" fill="none" xmlns="http://www.w3.org/2000/svg">
<path d="M12 16H15.8889L17.4444 18.5H19" stroke="#21272A" stroke-width="1.5" stroke-linecap="round" stroke-linejoin="round"/>
<path d="M12 11H15.8889M12 8.5V11V8.5ZM12 16V11V16Z" stroke="#21272A" stroke-width="1.5" stroke-linecap="round" stroke-linejoin="round"/>
<path d="M12 6.5C10.8954 6.5 10 5.60457 10 4.5C10 3.39543 10.8954 2.5 12 2.5C13.1046 2.5 14 3.39543 14 4.5C14 5.60457 13.1046 6.5 12 6.5Z" stroke="#21272A" stroke-width="1.5" stroke-linecap="round" stroke-linejoin="round"/>
<path d="M14.8815 19.5157C13.877 20.8374 12.2882 21.6907 10.5001 21.6907C7.46244 21.6907 5 19.2283 5 16.1907C5 13.7921 6.53546 11.7521 8.67708 11" stroke="#21272A" stroke-width="1.5" stroke-linecap="round" stroke-linejoin="round"/>
</svg>
