<svg width="24" height="24" viewBox="0 0 24 24" fill="none" xmlns="http://www.w3.org/2000/svg">
<path d="M5 12V15M2 12H5H2ZM8 12H5H8ZM5 12V9V12Z" stroke="#21272A" stroke-width="1.5" stroke-linecap="round" stroke-linejoin="round"/>
<path d="M6.25 5.99993L6.49485 5.72011C7.29167 4.80945 8.70833 4.80945 9.50515 5.7201L13.8476 10.6829C14.5074 11.4369 14.5074 12.5629 13.8476 13.3169L9.50515 18.2797C8.70833 19.1904 7.29167 19.1904 6.49485 18.2797L6.25 17.9999" stroke="#21272A" stroke-width="1.5" stroke-linecap="round" stroke-linejoin="round"/>
<path d="M13 19L17.8844 13.3016C18.5263 12.5526 18.5263 11.4474 17.8844 10.6984L13 5" stroke="#21272A" stroke-width="1.5" stroke-linecap="round" stroke-linejoin="round"/>
<path d="M17 19L21.8844 13.3016C22.5263 12.5526 22.5263 11.4474 21.8844 10.6984L17 5" stroke="#21272A" stroke-width="1.5" stroke-linecap="round" stroke-linejoin="round"/>
</svg>
