<svg width="24" height="24" viewBox="0 0 24 24" fill="none" xmlns="http://www.w3.org/2000/svg">
<path d="M12 12V15M9 12H12H9ZM15 12H12H15ZM12 12V9V12Z" stroke="#21272A" stroke-width="1.5" stroke-linecap="round" stroke-linejoin="round"/>
<path d="M11.6999 1.17315C11.8855 1.06598 12.1143 1.06598 12.2999 1.17316L21.2262 6.32675C21.4118 6.43392 21.5262 6.632 21.5262 6.84636V17.1536C21.5262 17.3679 21.4118 17.566 21.2262 17.6732L12.2999 22.8267C12.1143 22.9339 11.8855 22.9339 11.6999 22.8267L2.77363 17.6732C2.58799 17.566 2.47363 17.3679 2.47363 17.1536V6.84636C2.47363 6.632 2.58799 6.43392 2.77363 6.32674L11.6999 1.17315Z" stroke="#21272A" stroke-width="1.5" stroke-linecap="round" stroke-linejoin="round"/>
</svg>
