<svg width="24" height="24" viewBox="0 0 24 24" fill="none" xmlns="http://www.w3.org/2000/svg">
<path d="M9.87868 14.1218C11.0503 15.2934 12.9497 15.2934 14.1213 14.1218C15.2929 12.9502 15.2929 11.0507 14.1213 9.87917C12.9497 8.7076 11.0503 8.7076 9.87868 9.87917C8.70711 11.0507 8.7071 12.9502 9.87868 14.1218Z" stroke="#21272A" stroke-width="1.5" stroke-miterlimit="1.5" stroke-linecap="round" stroke-linejoin="round"/>
<path d="M4.37076 16.7726C4.09132 16.3274 3.84879 15.8547 3.64986 15.3612C3.23116 14.323 3.00098 13.1891 3.00098 12.0012C3.00098 7.7649 5.93471 4.20879 9.8792 3.25392C10.5594 3.0891 11.2698 3.00195 12.0002 3.00195" stroke="#21272A" stroke-width="1.49671" stroke-miterlimit="1.5" stroke-linecap="round" stroke-linejoin="round"/>
<path d="M19.7147 7.3667C20.5303 8.72132 20.9992 10.3061 20.9992 12.0008C20.9992 15.807 18.631 19.0638 15.2899 20.3786C14.2707 20.7793 13.1604 21 12 21" stroke="#21272A" stroke-width="1.49671" stroke-miterlimit="1.5" stroke-linecap="round" stroke-linejoin="round"/>
<path fill-rule="evenodd" clip-rule="evenodd" d="M14.1213 9.87917C14.1213 9.87917 14.1121 7.0769 15.5355 5.63652C16.9455 4.22797 18.3293 2.77203 19.7782 4.22231C21.1549 5.60046 19.793 7.03165 18.364 8.46495C16.9625 9.87068 14.1213 9.87917 14.1213 9.87917Z" stroke="#21272A" stroke-width="1.5" stroke-miterlimit="1.5" stroke-linecap="round" stroke-linejoin="round"/>
<path fill-rule="evenodd" clip-rule="evenodd" d="M9.87878 14.1208C9.87878 14.1208 9.88797 16.9232 8.46457 18.3636C7.05459 19.7721 5.67079 21.228 4.22192 19.7778C2.84519 18.3995 4.20707 16.9683 5.63614 15.535C7.03762 14.1293 9.87878 14.1208 9.87878 14.1208Z" stroke="#21272A" stroke-width="1.5" stroke-miterlimit="1.5" stroke-linecap="round" stroke-linejoin="round"/>
</svg>
