<svg width="24" height="24" viewBox="0 0 24 24" fill="none" xmlns="http://www.w3.org/2000/svg">
<path d="M14.1206 14.1213C15.2921 12.9497 15.2921 11.0503 14.1206 9.87868C12.949 8.70711 11.0495 8.70711 9.87795 9.87868C8.70638 11.0503 8.70638 12.9497 9.87795 14.1213C11.0495 15.2929 12.949 15.2929 14.1206 14.1213Z" stroke="#21272A" stroke-width="1.5" stroke-miterlimit="1.5" stroke-linecap="round" stroke-linejoin="round"/>
<path fill-rule="evenodd" clip-rule="evenodd" d="M9.87879 9.87866C9.87879 9.87866 7.07653 9.88785 5.63615 8.46444C4.2276 7.05447 2.77167 5.67066 4.22194 4.2218C5.60009 2.84507 7.03128 4.20695 8.46458 5.63602C9.87031 7.0375 9.87879 9.87866 9.87879 9.87866Z" stroke="#21272A" stroke-width="1.5" stroke-miterlimit="1.5" stroke-linecap="round" stroke-linejoin="round"/>
<path fill-rule="evenodd" clip-rule="evenodd" d="M14.1213 9.87866C14.1213 9.87866 14.1121 7.0764 15.5355 5.63602C16.9455 4.22747 18.3293 2.77154 19.7781 4.22181C21.1549 5.59996 19.793 7.03115 18.3639 8.46445C16.9624 9.87018 14.1213 9.87866 14.1213 9.87866Z" stroke="#21272A" stroke-width="1.5" stroke-miterlimit="1.5" stroke-linecap="round" stroke-linejoin="round"/>
<path fill-rule="evenodd" clip-rule="evenodd" d="M9.87854 14.1213C9.87854 14.1213 9.88773 16.9236 8.46432 18.364C7.05435 19.7725 5.67054 21.2284 4.22168 19.7782C2.84495 18.4 4.20683 16.9688 5.6359 15.5355C7.03738 14.1298 9.87854 14.1213 9.87854 14.1213Z" stroke="#21272A" stroke-width="1.5" stroke-miterlimit="1.5" stroke-linecap="round" stroke-linejoin="round"/>
<path fill-rule="evenodd" clip-rule="evenodd" d="M14.1213 14.1213C14.1213 14.1213 16.9236 14.1121 18.364 15.5355C19.7725 16.9455 21.2284 18.3293 19.7782 19.7781C18.4 21.1549 16.9688 19.793 15.5355 18.3639C14.1298 16.9624 14.1213 14.1213 14.1213 14.1213Z" stroke="#21272A" stroke-width="1.5" stroke-miterlimit="1.5" stroke-linecap="round" stroke-linejoin="round"/>
</svg>
