<svg width="24" height="24" viewBox="0 0 24 24" fill="none" xmlns="http://www.w3.org/2000/svg">
<path d="M12 5C12.5523 5 13 4.55228 13 4C13 3.44772 12.5523 3 12 3C11.4477 3 11 3.44772 11 4C11 4.55228 11.4477 5 12 5Z" fill="#21272A" stroke="#21272A" stroke-width="1.5" stroke-linecap="round" stroke-linejoin="round"/>
<path d="M16 1C16 1 17.5 2 17.5 4C17.5 6 16 7 16 7" stroke="#21272A" stroke-width="1.5" stroke-linecap="round" stroke-linejoin="round"/>
<path d="M8 1C8 1 6.5 2 6.5 4C6.5 6 8 7 8 7" stroke="#21272A" stroke-width="1.5" stroke-linecap="round" stroke-linejoin="round"/>
<path d="M8.11111 19H15.8889M7 23L8.11111 19L7 23ZM17 23L15.8889 19L17 23ZM14.5 14L12 5L9.5 14H14.5ZM14.5 14H9.5H14.5ZM14.5 14L15.8889 19L14.5 14ZM9.5 14L8.11111 19L9.5 14Z" stroke="#21272A" stroke-width="1.5" stroke-linecap="round" stroke-linejoin="round"/>
</svg>
