<svg width="24" height="24" viewBox="0 0 24 24" fill="none" xmlns="http://www.w3.org/2000/svg">
<path d="M6.11369 13.7817H9.88631M5.5 15.5L6.11369 13.7817L5.5 15.5ZM10.5 15.5L9.88631 13.7817L10.5 15.5ZM6.11369 13.7817L8 8.5L9.88631 13.7817H6.11369Z" stroke="#21272A" stroke-width="1.5" stroke-linecap="round" stroke-linejoin="round"/>
<path d="M15.8571 12.7L18 15.5M13 15.5V12.7V15.5ZM15.8571 12.7C16.5714 12.7 18 12.7 18 10.6C18 8.5 16.5714 8.5 15.8571 8.5H13V12.7H15.8571ZM15.8571 12.7C14.7143 12.7 13.4762 12.7 13 12.7H15.8571Z" stroke="#21272A" stroke-width="1.5" stroke-linecap="round" stroke-linejoin="round"/>
<path d="M2 18.4V5.6C2 5.26863 2.26863 5 2.6 5H21.4C21.7314 5 22 5.26863 22 5.6V18.4C22 18.7314 21.7314 19 21.4 19H2.6C2.26863 19 2 18.7314 2 18.4Z" stroke="#21272A" stroke-width="1.5"/>
</svg>
