<svg width="24" height="24" viewBox="0 0 24 24" fill="none" xmlns="http://www.w3.org/2000/svg">
<path d="M14 13H16H18" stroke="#21272A" stroke-width="1.5" stroke-linecap="round" stroke-linejoin="round"/>
<path d="M8 13V15M6 13H8H6ZM10 13H8H10ZM8 13V11V13Z" stroke="#21272A" stroke-width="1.5" stroke-linecap="round" stroke-linejoin="round"/>
<path d="M16 7H18M6 7H2.6C2.26863 7 2 7.26863 2 7.6V18.4C2 18.7314 2.26863 19 2.6 19H21.4C21.7314 19 22 18.7314 22 18.4V7.6C22 7.26863 21.7314 7 21.4 7H18H6ZM6 7V5H8V7H6ZM6 7H8H6ZM8 7H16H8ZM16 7V5H18V7H16Z" stroke="#21272A" stroke-width="1.5" stroke-linecap="round" stroke-linejoin="round"/>
</svg>
