<svg width="24" height="24" viewBox="0 0 24 24" fill="none" xmlns="http://www.w3.org/2000/svg">
<path d="M5.00004 8V6C5.00004 4.89543 5.89547 4 7.00004 4H17C18.1046 4 19 4.89543 19 6V8M2.76927 12L2.13721 8.71331C2.06605 8.34327 2.3496 8 2.72642 8H21.2736C21.6504 8 21.934 8.34327 21.8628 8.71331L21.2308 12H2.76927ZM2.76927 12H21.2308H2.76927ZM2.76927 12L3.38466 16L2.76927 12ZM21.2308 12L20.6154 16L21.2308 12ZM20.6154 16L20.0783 19.4912C20.0332 19.7839 19.7814 20 19.4852 20H4.51479C4.21865 20 3.9668 19.7839 3.92177 19.4912L3.38466 16H20.6154ZM20.6154 16H3.38466H20.6154Z" stroke="#21272A" stroke-width="1.5"/>
</svg>
