<svg width="24" height="24" viewBox="0 0 24 24" fill="none" xmlns="http://www.w3.org/2000/svg">
<path d="M20.6154 17H3.38466M2.76927 13L2.13721 9.71331C2.06605 9.34327 2.3496 9 2.72642 9H21.2736C21.6504 9 21.934 9.34327 21.8628 9.71331L21.2308 13H2.76927ZM2.76927 13H21.2308H2.76927ZM2.76927 13L3.38466 17L2.76927 13ZM21.2308 13L20.6154 17L21.2308 13ZM20.6154 17L20.0783 20.4912C20.0332 20.7839 19.7814 21 19.4852 21H4.51479C4.21865 21 3.9668 20.7839 3.92177 20.4912L3.38466 17H20.6154Z" stroke="#21272A" stroke-width="1.5"/>
<path d="M8 9V5C8 3.89543 8.89543 3 10 3H14C15.1046 3 16 3.89543 16 5V9" stroke="#21272A" stroke-width="1.5"/>
</svg>
