<svg width="24" height="24" viewBox="0 0 24 24" fill="none" xmlns="http://www.w3.org/2000/svg">
<path d="M3.03931 4.2939C3.01461 4.10866 3.07922 3.92338 3.23145 3.81499C3.92732 3.31953 6.31432 2 12.0001 2C17.6859 2 20.0729 3.31952 20.7688 3.81499C20.921 3.92338 20.9856 4.10866 20.9609 4.2939L19.2617 17.0378C19.0969 18.2744 18.3645 19.3632 17.2814 19.9821L16.9615 20.1649C13.8872 21.9217 10.113 21.9217 7.03873 20.1649L6.71885 19.9821C5.63572 19.3632 4.90337 18.2744 4.7385 17.0378L3.03931 4.2939Z" stroke="#21272A" stroke-width="1.5"/>
<path d="M3 5C5.57143 7.66666 18.4286 7.66662 21 5" stroke="#21272A" stroke-width="1.5"/>
<path d="M14 14.5L20 11.5M11 18L14 14.5L11 18ZM14 14.5L19 17L14 14.5Z" stroke="#21272A" stroke-width="1.5"/>
<path d="M4.5 15.9999L7.73595 15.5376C7.90405 15.5136 8.07446 15.5619 8.20491 15.6707L11 17.9999L14 20.9999" stroke="#21272A" stroke-width="1.5"/>
<path d="M8 15.5L10.6149 12.4493C10.8284 12.2001 11.2025 12.1688 11.4546 12.3788L14 14.5" stroke="#21272A" stroke-width="1.5"/>
</svg>
