<svg width="24" height="24" viewBox="0 0 24 24" fill="none" xmlns="http://www.w3.org/2000/svg">
<path d="M20.9157 4.67442L19.0657 19.4744C19.0282 19.7747 18.7729 20 18.4703 20H5.52968C5.22709 20 4.97184 19.7747 4.93431 19.4744L3.08431 4.67442C3.03955 4.31631 3.31878 4 3.67968 4H20.3203C20.6812 4 20.9605 4.31631 20.9157 4.67442Z" stroke="#21272A" stroke-width="1.5" stroke-linecap="round" stroke-linejoin="round"/>
<path d="M16.75 7.75H20.4999M16.75 7.75L15.8124 15.7201C15.7768 16.0223 15.5207 16.25 15.2165 16.25H8.78361C8.47936 16.25 8.22326 16.0223 8.18772 15.7201L7.32889 8.4201C7.28693 8.06341 7.56563 7.75 7.92478 7.75H16.75Z" stroke="#21272A" stroke-width="1.5" stroke-linecap="round" stroke-linejoin="round"/>
</svg>
