<svg width="24" height="24" viewBox="0 0 24 24" fill="none" xmlns="http://www.w3.org/2000/svg">
<g clip-path="url(#clip0_1_27379)">
<path d="M1 21V3C1 1.89543 1.89543 1 3 1H21C22.1046 1 23 1.89543 23 3V21C23 22.1046 22.1046 23 21 23H3C1.89543 23 1 22.1046 1 21Z" stroke="#21272A" stroke-width="1.5"/>
<path d="M15 7H17H19" stroke="#21272A" stroke-width="1.5" stroke-linecap="round" stroke-linejoin="round"/>
<path d="M15 15.5H17H19" stroke="#21272A" stroke-width="1.5" stroke-linecap="round" stroke-linejoin="round"/>
<path d="M15 18.5H17H19" stroke="#21272A" stroke-width="1.5" stroke-linecap="round" stroke-linejoin="round"/>
<path d="M7 7V9M5 7H7H5ZM9 7H7H9ZM7 7V5V7Z" stroke="#21272A" stroke-width="1.5" stroke-linecap="round" stroke-linejoin="round"/>
<path d="M7.00039 17L8.41461 18.4142M5.58618 18.4142L7.00039 17L5.58618 18.4142ZM8.41461 15.5858L7.00039 17L8.41461 15.5858ZM7.00039 17L5.58618 15.5858L7.00039 17Z" stroke="#21272A" stroke-width="1.5" stroke-linecap="round" stroke-linejoin="round"/>
</g>
<defs>
<clipPath id="clip0_1_27379">
<rect width="24" height="24" fill="white"/>
</clipPath>
</defs>
</svg>
