<svg width="24" height="24" viewBox="0 0 24 24" fill="none" xmlns="http://www.w3.org/2000/svg">
<path d="M12 22C17.5228 22 22 17.5228 22 12C22 6.47715 17.5228 2 12 2C6.47715 2 2 6.47715 2 12C2 13.8214 2.48697 15.5291 3.33782 17L2.5 21.5L7 20.6622C8.47087 21.513 10.1786 22 12 22Z" stroke="#21272A" stroke-width="1.5" stroke-linecap="round" stroke-linejoin="round"/>
<path d="M12 14.2773L14.1429 16.4828M7 8.51724H12H7ZM17 8.51724H15.2143H17ZM12 8.51724H15.2143H12ZM12 8.51724V7V8.51724ZM15.2143 8.51724C14.6282 10.5922 13.4009 12.5536 12 14.2773L15.2143 8.51724ZM8.42857 18C9.561 16.9691 10.84 15.7047 12 14.2773L8.42857 18ZM12 14.2773C11.2857 13.4483 10.2857 12.1069 10 11.5L12 14.2773Z" stroke="#21272A" stroke-width="1.5" stroke-linecap="round" stroke-linejoin="round"/>
</svg>
