<svg width="24" height="24" viewBox="0 0 24 24" fill="none" xmlns="http://www.w3.org/2000/svg">
<path d="M20 17.6073C21.4937 17.0221 23 15.6889 23 13C23 9 19.6667 8 18 8C18 6 18 2 12 2C6 2 6 6 6 8C4.33333 8 1 9 1 13C1 15.6889 2.50628 17.0221 4 17.6073" stroke="#21272A" stroke-width="1.5" stroke-linecap="round" stroke-linejoin="round"/>
<path d="M7.58057 19.4874L9.34834 21.2552C10.9105 22.8173 13.4431 22.8173 15.0052 21.2552L15.3588 20.9016" stroke="#21272A" stroke-width="1.5" stroke-linecap="round" stroke-linejoin="round"/>
<path d="M7.93412 21.9623L7.58057 19.4874L10.0554 19.841L7.93412 21.9623Z" stroke="#21272A" stroke-width="1.5" stroke-linecap="round" stroke-linejoin="round"/>
<path d="M16.298 16.9016L14.5302 15.1339C12.9681 13.5718 10.4354 13.5718 8.87334 15.1339L8.51978 15.4874" stroke="#21272A" stroke-width="1.5" stroke-linecap="round" stroke-linejoin="round"/>
<path d="M15.9445 14.4268L16.2981 16.9017L13.8232 16.5481L15.9445 14.4268Z" stroke="#21272A" stroke-width="1.5" stroke-linecap="round" stroke-linejoin="round"/>
</svg>
