<svg width="24" height="24" viewBox="0 0 24 24" fill="none" xmlns="http://www.w3.org/2000/svg">
<path d="M6.99995 13.161H14.071M6.99995 13.161L12.4643 7.69658C12.8548 7.30605 13.488 7.30605 13.8785 7.69658L15.9998 9.8179C16.3903 10.2084 16.3903 10.8416 15.9998 11.2321L14.071 13.161H6.99995ZM6.99995 13.161L4.82759 15.3334C4.73423 15.4267 4.66029 15.5376 4.61002 15.6597L3.58199 18.1563C3.07433 19.3892 4.30723 20.6221 5.54013 20.1145L8.03676 19.0865C8.15885 19.0362 8.26976 18.9622 8.36312 18.8689L14.071 13.161H6.99995Z" stroke="#21272A" stroke-width="1.5" stroke-linecap="round" stroke-linejoin="round"/>
<path d="M15.9992 5.5753L18.1205 7.69663M13.8779 3.45398L15.9992 5.5753L13.8779 3.45398ZM20.2419 9.81795L18.1205 7.69663L20.2419 9.81795ZM15.9992 5.5753L17.4134 4.16109C17.804 3.77057 18.4371 3.77057 18.8276 4.16109L19.5348 4.8682C19.9253 5.25872 19.9253 5.89189 19.5348 6.28241L18.1205 7.69663L15.9992 5.5753Z" stroke="#21272A" stroke-width="1.5" stroke-linecap="round" stroke-linejoin="round"/>
</svg>
