<svg width="24" height="24" viewBox="0 0 24 24" fill="none" xmlns="http://www.w3.org/2000/svg">
<path d="M13.8788 7.69658L16.0001 9.8179C16.3907 10.2084 16.3907 10.8416 16.0001 11.2321L8.36336 18.8689C8.27001 18.9622 8.15909 19.0362 8.03701 19.0865L5.54038 20.1145C4.30747 20.6221 3.07457 19.3892 3.58223 18.1563L4.61026 15.6597C4.66053 15.5376 4.73447 15.4267 4.82783 15.3334L12.4646 7.69658C12.8551 7.30605 13.4883 7.30605 13.8788 7.69658Z" stroke="#21272A" stroke-width="1.5" stroke-linecap="round" stroke-linejoin="round"/>
<path d="M16.0001 5.5753L18.1214 7.69662M13.8787 3.45398L16.0001 5.5753L13.8787 3.45398ZM20.2427 9.81794L18.1214 7.69662L20.2427 9.81794ZM16.0001 5.5753L17.4143 4.16109C17.8048 3.77057 18.438 3.77057 18.8285 4.16109L19.5356 4.8682C19.9261 5.25872 19.9261 5.89189 19.5356 6.28241L18.1214 7.69662L16.0001 5.5753Z" stroke="#21272A" stroke-width="1.5" stroke-linecap="round" stroke-linejoin="round"/>
</svg>
