<svg width="24" height="24" viewBox="0 0 24 24" fill="none" xmlns="http://www.w3.org/2000/svg">
<path d="M22.0029 3V7.49704C22.0029 7.77482 21.7777 8 21.4999 8C21.3 8 21.1201 7.88104 21.034 7.70059C19.4263 4.32948 15.9866 2 12.0029 2C6.81752 2 2.55397 5.94668 2.05225 11" stroke="#21272A" stroke-width="1.5" stroke-linecap="round" stroke-linejoin="round"/>
<path d="M17 9.99999V15C17 16.1046 16.1046 17 15 17H9C7.89543 17 7 16.1046 7 15V10C7 8.89543 7.89543 8 9 8H15C16.1045 8 17 8.89543 17 9.99999Z" stroke="#21272A" stroke-width="1.5" stroke-linecap="round" stroke-linejoin="round"/>
<path d="M12 11V8" stroke="#21272A" stroke-width="1.5" stroke-linecap="round" stroke-linejoin="round"/>
<path d="M2.05078 21V16.503C2.05078 16.2252 2.27597 16 2.55374 16C2.75366 16 2.93357 16.119 3.01963 16.2994C4.62737 19.6705 8.06703 22 12.0507 22C17.2361 22 21.4996 18.0533 22.0014 13" stroke="#21272A" stroke-width="1.5" stroke-linecap="round" stroke-linejoin="round"/>
</svg>
