<svg width="24" height="24" viewBox="0 0 24 24" fill="none" xmlns="http://www.w3.org/2000/svg">
<path d="M5.00001 14L4.408 13.5395C4.23213 13.7657 4.20042 14.0722 4.32627 14.3295C4.45213 14.5868 4.71356 14.75 5.00001 14.75V14ZM19 14V14.75C19.2865 14.75 19.5479 14.5868 19.6737 14.3295C19.7996 14.0722 19.7679 13.7657 19.592 13.5395L19 14ZM5.00001 14.75H19V13.25H5.00001V14.75ZM10.6186 5.55445L4.408 13.5395L5.59202 14.4605L11.8027 6.47536L10.6186 5.55445ZM19.592 13.5395L13.3814 5.55444L12.1973 6.47536L18.408 14.4605L19.592 13.5395ZM11.8027 6.47536C11.9028 6.34667 12.0972 6.34667 12.1973 6.47536L13.3814 5.55444C12.6807 4.65364 11.3193 4.65364 10.6186 5.55445L11.8027 6.47536Z" fill="#21272A"/>
<path d="M5 17.25C4.58579 17.25 4.25 17.5858 4.25 18C4.25 18.4142 4.58579 18.75 5 18.75V17.25ZM19 18.75C19.4142 18.75 19.75 18.4142 19.75 18C19.75 17.5858 19.4142 17.25 19 17.25V18.75ZM5 18.75H19V17.25H5V18.75Z" fill="#21272A"/>
</svg>
