<svg width="24" height="24" viewBox="0 0 24 24" fill="none" xmlns="http://www.w3.org/2000/svg">
<path d="M2.8 8.10001C2.8 8.59707 2.39706 9.00001 1.9 9.00001C1.40294 9.00001 1 8.59707 1 8.10001C1 7.60295 1.40294 7.20001 1.9 7.20001C2.39706 7.20001 2.8 7.60295 2.8 8.10001Z" fill="#21272A"/>
<path d="M2.8 8.1V3.6C2.8 3.26863 3.06863 3 3.4 3H5M2.8 8.1C2.8 8.59706 2.39706 9 1.9 9C1.40294 9 1 8.59706 1 8.1C1 7.60294 1.40294 7.2 1.9 7.2C2.39706 7.2 2.8 7.60294 2.8 8.1Z" stroke="#21272A" stroke-width="1.5" stroke-linecap="round"/>
<path d="M8 17C9.10457 17 10 16.1046 10 15C10 13.8954 9.10457 13 8 13C6.89543 13 6 13.8954 6 15C6 16.1046 6.89543 17 8 17Z" stroke="#21272A" stroke-width="1.5" stroke-linecap="round" stroke-linejoin="round"/>
<path d="M2.04932 13C2.55104 18.0533 6.81459 22 11.9999 22C17.5227 22 21.9999 17.5228 21.9999 12C21.9999 6.47715 17.5227 2 11.9999 2C10.5777 2 9.22486 2.2969 7.99994 2.83209" stroke="#21272A" stroke-width="1.5" stroke-linecap="round" stroke-linejoin="round"/>
<path d="M15.5 9C15.7761 9 16 8.77614 16 8.5C16 8.22386 15.7761 8 15.5 8C15.2239 8 15 8.22386 15 8.5C15 8.77614 15.2239 9 15.5 9Z" fill="#21272A" stroke="#21272A" stroke-width="1.5" stroke-linecap="round" stroke-linejoin="round"/>
<path d="M8.5 9C8.77614 9 9 8.77614 9 8.5C9 8.22386 8.77614 8 8.5 8C8.22386 8 8 8.22386 8 8.5C8 8.77614 8.22386 9 8.5 9Z" fill="#21272A" stroke="#21272A" stroke-width="1.5" stroke-linecap="round" stroke-linejoin="round"/>
</svg>
