<svg width="24" height="24" viewBox="0 0 24 24" fill="none" xmlns="http://www.w3.org/2000/svg">
<path d="M2 16V8C2 4.68629 4.68629 2 8 2H16C19.3137 2 22 4.68629 22 8V16C22 19.3137 19.3137 22 16 22H8C4.68629 22 2 19.3137 2 16Z" stroke="#21272A" stroke-width="1.5"/>
<path d="M6 13V11C6 9.89543 6.89543 9 8 9H11C12.1046 9 13 9.89543 13 11V13C13 14.1046 12.1046 15 11 15H8C6.89543 15 6 14.1046 6 13Z" stroke="#21272A" stroke-width="1.5"/>
<path d="M17.04 9.22003L13.9734 11.52C13.6534 11.76 13.6534 12.24 13.9734 12.48L17.04 14.78C17.4356 15.0767 18 14.7944 18 14.3V9.70003C18 9.2056 17.4356 8.92337 17.04 9.22003Z" stroke="#21272A" stroke-width="1.5" stroke-linecap="round" stroke-linejoin="round"/>
</svg>
