<svg width="24" height="24" viewBox="0 0 24 24" fill="none" xmlns="http://www.w3.org/2000/svg">
<g clip-path="url(#clip0_1_28726)">
<path d="M11.9995 14.9995C13.6564 14.9995 14.9995 13.6564 14.9995 11.9995C14.9995 10.3427 13.6564 8.99951 11.9995 8.99951C10.3427 8.99951 8.99951 10.3427 8.99951 11.9995C8.99951 13.6564 10.3427 14.9995 11.9995 14.9995Z" stroke="#21272A" stroke-width="1.5" stroke-miterlimit="1.5" stroke-linecap="round" stroke-linejoin="round"/>
<path d="M13 9C13 9 14 7 14 5C14 3 12 1 12 1C12 1 10 3 10 5C10 7 11 9 11 9" stroke="#21272A" stroke-width="1.5" stroke-miterlimit="1.5" stroke-linecap="round" stroke-linejoin="round"/>
<path d="M9 11C9 11 7 10 5 10C3 10 1 12 1 12C1 12 3 14 5 14C7 14 9 13 9 13" stroke="#21272A" stroke-width="1.5" stroke-miterlimit="1.5" stroke-linecap="round" stroke-linejoin="round"/>
<path d="M13 15C13 15 14 17 14 19C14 21 12 23 12 23C12 23 10 21 10 19C10 17 11 15 11 15" stroke="#21272A" stroke-width="1.5" stroke-miterlimit="1.5" stroke-linecap="round" stroke-linejoin="round"/>
<path d="M15 11C15 11 17 10 19 10C21 10 23 12 23 12C23 12 21 14 19 14C17 14 15 13 15 13" stroke="#21272A" stroke-width="1.5" stroke-miterlimit="1.5" stroke-linecap="round" stroke-linejoin="round"/>
<path d="M10.5859 9.17175C10.5859 9.17175 9.87877 7.05044 8.46456 5.63623C7.05035 4.22202 4.22192 4.22202 4.22192 4.22202C4.22192 4.22202 4.22192 7.05043 5.63613 8.46465C7.05035 9.87886 9.17167 10.586 9.17167 10.586" stroke="#21272A" stroke-width="1.5" stroke-miterlimit="1.5" stroke-linecap="round" stroke-linejoin="round"/>
<path d="M9.17143 13.4142C9.17143 13.4142 7.05011 14.1213 5.6359 15.5355C4.22168 16.9497 4.22168 19.7782 4.22168 19.7782C4.22168 19.7782 7.05011 19.7782 8.46432 18.364C9.87854 16.9497 10.5856 14.8284 10.5856 14.8284" stroke="#21272A" stroke-width="1.5" stroke-miterlimit="1.5" stroke-linecap="round" stroke-linejoin="round"/>
<path d="M14.8285 13.4142C14.8285 13.4142 16.9498 14.1213 18.364 15.5355C19.7782 16.9497 19.7782 19.7782 19.7782 19.7782C19.7782 19.7782 16.9498 19.7782 15.5356 18.364C14.1214 16.9497 13.4143 14.8284 13.4143 14.8284" stroke="#21272A" stroke-width="1.5" stroke-miterlimit="1.5" stroke-linecap="round" stroke-linejoin="round"/>
<path d="M13.4143 9.17175C13.4143 9.17175 14.1214 7.05044 15.5356 5.63623C16.9498 4.22202 19.7783 4.22202 19.7783 4.22202C19.7783 4.22202 19.7783 7.05043 18.3641 8.46465C16.9498 9.87886 14.8285 10.586 14.8285 10.586" stroke="#21272A" stroke-width="1.5" stroke-miterlimit="1.5" stroke-linecap="round" stroke-linejoin="round"/>
</g>
<defs>
<clipPath id="clip0_1_28726">
<rect width="24" height="24" fill="white"/>
</clipPath>
</defs>
</svg>
