<svg width="24" height="24" viewBox="0 0 24 24" fill="none" xmlns="http://www.w3.org/2000/svg">
<path d="M13.4143 10.5858L14.8285 12M4.11555 14.0149C3.95736 15.3855 3.96 16.6715 4.0121 17.6795C4.07746 18.9439 5.05619 19.9227 6.32062 19.988C7.32861 20.0401 8.61465 20.0428 9.9852 19.8846L4.11555 14.0149ZM4.11555 14.0149C4.39386 11.6036 5.17 8.93063 7.05037 7.05025C8.93075 5.16988 11.6037 4.39374 14.015 4.11543L4.11555 14.0149ZM4.11555 14.0149L9.9852 19.8846L4.11555 14.0149ZM9.9852 19.8846C12.3965 19.6063 15.0695 18.8301 16.9498 16.9497C18.8302 15.0694 19.6064 12.3964 19.8847 9.98508L9.9852 19.8846ZM14.015 4.11543C15.3856 3.95724 16.6716 3.95988 17.6796 4.01198C18.944 4.07734 19.9228 5.05607 19.9881 6.3205C20.0402 7.32849 20.0429 8.61453 19.8847 9.98508L14.015 4.11543ZM14.015 4.11543L19.8847 9.98508L14.015 4.11543ZM9.1717 14.8284L10.5859 13.4142L9.1717 14.8284ZM10.5859 13.4142L9.1717 12L10.5859 13.4142ZM10.5859 13.4142L12.0001 14.8284L10.5859 13.4142ZM10.5859 13.4142L13.4143 10.5858L10.5859 13.4142ZM13.4143 10.5858L14.8285 9.17158L13.4143 10.5858ZM13.4143 10.5858L12.0001 9.17158L13.4143 10.5858Z" stroke="#21272A" stroke-width="1.5" stroke-linecap="round" stroke-linejoin="round"/>
</svg>
