<svg width="24" height="24" viewBox="0 0 24 24" fill="none" xmlns="http://www.w3.org/2000/svg">
<path fill-rule="evenodd" clip-rule="evenodd" d="M17.0572 2.5443C17.1157 2.36427 17.3683 2.35863 17.4347 2.53588L20.5487 10.8457L21.9466 14.5766C21.9781 14.6607 21.9496 14.7555 21.877 14.8084L12.1176 21.9143C12.0475 21.9654 11.9523 21.9654 11.8822 21.9143L2.12282 14.8084C2.05019 14.7555 2.02174 14.6607 2.05326 14.5766L3.45086 10.8462L3.61775 10.3963L6.56241 2.53588C6.62881 2.35864 6.88141 2.36423 6.93991 2.54423L9.40944 10.1431C9.43622 10.2255 9.513 10.2813 9.59964 10.2813H14.4001C14.4867 10.2813 14.5636 10.2255 14.5903 10.143L17.0572 2.5443Z" stroke="#21272A" stroke-width="1.5"/>
</svg>
