<svg width="24" height="24" viewBox="0 0 24 24" fill="none" xmlns="http://www.w3.org/2000/svg">
<path d="M11 5V19C11 20.1046 11.8954 21 13 21C14.1046 21 15 20.1046 15 19V5C15 3.89543 14.1046 3 13 3C11.8954 3 11 3.89543 11 5Z" stroke="#21272A" stroke-width="1.5" stroke-linecap="round" stroke-linejoin="round"/>
<path d="M11.6396 3.52917L6.74732 8.17182C5.94609 8.93215 5.91294 10.198 6.67328 10.9993C7.43361 11.8005 8.69951 11.8336 9.50074 11.0733L14.3931 6.43067C15.1943 5.67034 15.2274 4.40444 14.4671 3.60321C13.7068 2.80199 12.4409 2.76884 11.6396 3.52917Z" stroke="#21272A" stroke-width="1.5" stroke-linecap="round" stroke-linejoin="round"/>
</svg>
