<svg width="24" height="24" viewBox="0 0 24 24" fill="none" xmlns="http://www.w3.org/2000/svg">
<path d="M10 12V15.5M5.5 8.5V12V8.5ZM5.5 15.5V12V15.5ZM5.5 12H10H5.5ZM10 12V8.5V12Z" stroke="#21272A" stroke-width="1.5" stroke-linecap="round" stroke-linejoin="round"/>
<path d="M13.5 12V8.5C16 8.5 18.5 8.5 18.5 12C18.5 15.5 16 15.5 13.5 15.5V12Z" stroke="#21272A" stroke-width="1.5" stroke-linecap="round" stroke-linejoin="round"/>
<path d="M2 18.4V5.6C2 5.26863 2.26863 5 2.6 5H21.4C21.7314 5 22 5.26863 22 5.6V18.4C22 18.7314 21.7314 19 21.4 19H2.6C2.26863 19 2 18.7314 2 18.4Z" stroke="#21272A" stroke-width="1.5"/>
</svg>
