<svg width="24" height="24" viewBox="0 0 24 24" fill="none" xmlns="http://www.w3.org/2000/svg">
<g clip-path="url(#clip0_1_29111)">
<path d="M11.7396 1.62537C11.9041 1.54614 12.0957 1.54614 12.2602 1.62537L20.3397 5.51624C20.5042 5.59547 20.6237 5.7453 20.6643 5.92331L22.6598 14.666C22.7004 14.844 22.6578 15.0309 22.544 15.1736L16.9528 22.1848C16.8389 22.3275 16.6663 22.4107 16.4837 22.4107H7.51613C7.33354 22.4107 7.16088 22.3275 7.04703 22.1848L1.45586 15.1736C1.34201 15.0309 1.29937 14.844 1.34 14.666L3.33547 5.92331C3.3761 5.7453 3.49558 5.59547 3.66009 5.51624L11.7396 1.62537Z" stroke="#21272A" stroke-width="1.5" stroke-linecap="round" stroke-linejoin="round"/>
</g>
<defs>
<clipPath id="clip0_1_29111">
<rect width="24" height="24" fill="white"/>
</clipPath>
</defs>
</svg>
