<svg width="24" height="24" viewBox="0 0 24 24" fill="none" xmlns="http://www.w3.org/2000/svg">
<path d="M11.6999 1.1732C11.8855 1.06603 12.1143 1.06603 12.2999 1.17321L21.2262 6.3268C21.4118 6.43397 21.5262 6.63205 21.5262 6.84641V17.1536C21.5262 17.3679 21.4118 17.566 21.2262 17.6732L12.2999 22.8268C12.1143 22.934 11.8855 22.934 11.6999 22.8268L2.77363 17.6732C2.58799 17.566 2.47363 17.3679 2.47363 17.1536V6.84641C2.47363 6.63205 2.58799 6.43397 2.77363 6.32679L11.6999 1.1732Z" stroke="#21272A" stroke-width="1.5" stroke-linecap="round" stroke-linejoin="round"/>
<path d="M17 15H7L12 7L17 15Z" stroke="#21272A" stroke-width="1.5" stroke-linecap="round" stroke-linejoin="round"/>
<path d="M2.5 6.5L12 7" stroke="#21272A" stroke-width="1.5" stroke-linejoin="round"/>
<path d="M2.5 6.5L7 15" stroke="#21272A" stroke-width="1.5" stroke-linejoin="round"/>
<path d="M21.5 6.5L17 15" stroke="#21272A" stroke-width="1.5" stroke-linejoin="round"/>
<path d="M21.5 6.5L12 6.99995V1" stroke="#21272A" stroke-width="1.5" stroke-linejoin="round"/>
<path d="M21.5 17.5L17 15" stroke="#21272A" stroke-width="1.5" stroke-linejoin="round"/>
<path d="M2.5 17.5L7 15" stroke="#21272A" stroke-width="1.5" stroke-linejoin="round"/>
<path d="M7 15L12 23L17 15" stroke="#21272A" stroke-width="1.5" stroke-linejoin="round"/>
</svg>
