<svg width="24" height="24" viewBox="0 0 24 24" fill="none" xmlns="http://www.w3.org/2000/svg">
<path d="M5 7V4M5 17V7V17ZM5 17H10.4C10.7314 17 11 16.7314 11 16.4V7.6C11 7.26863 10.7314 7 10.4 7H5V17ZM5 17V20V17Z" stroke="#21272A" stroke-width="1.5" stroke-linecap="round" stroke-linejoin="round"/>
<path d="M15 7V4M15 17V7V17ZM15 17H18.4C18.7314 17 19 16.7314 19 16.4V7.6C19 7.26863 18.7314 7 18.4 7H15V17ZM15 17V20V17Z" stroke="#21272A" stroke-width="1.5" stroke-linecap="round" stroke-linejoin="round"/>
</svg>
