<svg width="24" height="24" viewBox="0 0 24 24" fill="none" xmlns="http://www.w3.org/2000/svg">
<path d="M19 7V4M19 17V7V17ZM19 17H13.6C13.2686 17 13 16.7314 13 16.4V7.6C13 7.26863 13.2686 7 13.6 7H19V17ZM19 17V20V17Z" stroke="#21272A" stroke-width="1.5" stroke-linecap="round" stroke-linejoin="round"/>
<path d="M9 7V4M9 17V7V17ZM9 17H5.6C5.26863 17 5 16.7314 5 16.4V7.6C5 7.26863 5.26863 7 5.6 7H9V17ZM9 17V20V17Z" stroke="#21272A" stroke-width="1.5" stroke-linecap="round" stroke-linejoin="round"/>
</svg>
