<svg width="24" height="24" viewBox="0 0 24 24" fill="none" xmlns="http://www.w3.org/2000/svg">
<path d="M17.9922 18L20.1135 20.1213M15.8708 20.1213L17.9922 18L15.8708 20.1213ZM20.1135 15.8787L17.9922 18L20.1135 15.8787ZM17.9922 18L15.8708 15.8787L17.9922 18Z" stroke="#21272A" stroke-width="1.5" stroke-linecap="round" stroke-linejoin="round"/>
<path d="M12.4122 10.3431L3.927 18.8284L6.04832 20.9497M12.4122 10.3431C13.9743 11.9052 16.507 11.9052 18.0691 10.3431C19.6312 8.78105 19.6312 6.24839 18.0691 4.68629C16.507 3.1242 13.9743 3.1242 12.4122 4.68629C10.8501 6.24839 10.8501 8.78105 12.4122 10.3431Z" stroke="#21272A" stroke-width="1.5" stroke-linecap="round" stroke-linejoin="round"/>
<path d="M6.75537 16L8.87669 18.1213" stroke="#21272A" stroke-width="1.5" stroke-linecap="round" stroke-linejoin="round"/>
</svg>
