<svg width="24" height="24" viewBox="0 0 24 24" fill="none" xmlns="http://www.w3.org/2000/svg">
<path d="M15.819 13.3287L10.4949 19.3183C9.69935 20.2134 8.30087 20.2134 7.50529 19.3183L2.1812 13.3287C1.50763 12.571 1.50763 11.429 2.1812 10.6713L7.50529 4.68167C8.30087 3.78664 9.69935 3.78664 10.4949 4.68167L15.819 10.6713C16.4926 11.429 16.4926 12.571 15.819 13.3287Z" stroke="#21272A" stroke-width="1.5" stroke-linecap="round" stroke-linejoin="round"/>
<path d="M12 6.375L13.5052 4.68167C14.3008 3.78664 15.6992 3.78664 16.4948 4.68167L21.8189 10.6713C22.4925 11.429 22.4925 12.571 21.8189 13.3287L16.4948 19.3183C15.6992 20.2134 14.3008 20.2134 13.5052 19.3183L12 17.625" stroke="#21272A" stroke-width="1.5" stroke-linecap="round" stroke-linejoin="round"/>
</svg>
