<svg width="24" height="24" viewBox="0 0 24 24" fill="none" xmlns="http://www.w3.org/2000/svg">
<path d="M13.8475 13.317L9.50508 18.2798C8.70826 19.1905 7.2916 19.1905 6.49478 18.2798L2.15231 13.317C1.49252 12.563 1.49252 11.437 2.15231 10.683L6.49478 5.72018C7.2916 4.80952 8.70826 4.80952 9.50508 5.72017L13.8475 10.683C14.5073 11.437 14.5073 12.563 13.8475 13.317Z" stroke="#21272A" stroke-width="1.5" stroke-linecap="round" stroke-linejoin="round"/>
<path d="M13 19L17.8844 13.3016C18.5263 12.5526 18.5263 11.4474 17.8844 10.6984L13 5" stroke="#21272A" stroke-width="1.5" stroke-linecap="round" stroke-linejoin="round"/>
<path d="M17 19L21.8844 13.3016C22.5263 12.5526 22.5263 11.4474 21.8844 10.6984L17 5" stroke="#21272A" stroke-width="1.5" stroke-linecap="round" stroke-linejoin="round"/>
</svg>
