<svg width="24" height="24" viewBox="0 0 24 24" fill="none" xmlns="http://www.w3.org/2000/svg">
<path d="M20.8001 14.2222V8.11108M20.8001 14.2222H3.65391C3.38543 14.2222 3.14963 14.4005 3.07656 14.6589L1.71977 19.4556C1.35871 20.7321 2.3177 22 3.64426 22H20.3559C21.6825 22 22.6415 20.7321 22.2804 19.4556L20.8001 14.2222Z" stroke="#21272A" stroke-width="1.5" stroke-linecap="round" stroke-linejoin="round"/>
<path d="M3.19995 14.2222V4C3.19995 2.89543 4.09538 2 5.19995 2H12" stroke="#21272A" stroke-width="1.5" stroke-linecap="round" stroke-linejoin="round"/>
<path d="M11 19H13" stroke="#21272A" stroke-width="1.5" stroke-linecap="round" stroke-linejoin="round"/>
<path d="M17.6569 4.82837L14.8284 7.6568" stroke="#21272A" stroke-width="1.5" stroke-linecap="round" stroke-linejoin="round"/>
<path d="M20.4853 4.82843C19.7042 5.60948 18.4379 5.60948 17.6569 4.82843C16.8758 4.04738 16.8758 2.78105 17.6569 2" stroke="#21272A" stroke-width="1.5" stroke-linecap="round" stroke-linejoin="round"/>
<path d="M14.8284 10.4853C15.6094 9.70427 15.6094 8.43794 14.8284 7.65689C14.0473 6.87584 12.781 6.87584 12 7.65689" stroke="#21272A" stroke-width="1.5" stroke-linecap="round" stroke-linejoin="round"/>
</svg>
