<svg width="24" height="24" viewBox="0 0 24 24" fill="none" xmlns="http://www.w3.org/2000/svg">
<path d="M9 19V3M9 19L3.78974 20.7368C3.40122 20.8663 3 20.5771 3 20.1675V5.43246C3 5.1742 3.16526 4.94491 3.41026 4.86325L9 3V19ZM9 19L14.2103 20.7368C14.5988 20.8663 15 20.5771 15 20.1675V5.43246C15 5.1742 14.8347 4.94491 14.5897 4.86325L9 3V19Z" stroke="#21272A" stroke-width="1.5" stroke-linecap="round" stroke-linejoin="round"/>
<path d="M15 5L20.2103 3.26325C20.5988 3.13374 21 3.42292 21 3.83246V15" stroke="#21272A" stroke-width="1.5" stroke-linecap="round" stroke-linejoin="round"/>
<path d="M19.2427 20.2427L21.364 22.364M17.1213 22.364L19.2427 20.2427L17.1213 22.364ZM19.2427 20.2427L21.364 18.1213L19.2427 20.2427ZM19.2427 20.2427L17.1213 18.1213L19.2427 20.2427Z" stroke="#21272A" stroke-width="1.5" stroke-linecap="round" stroke-linejoin="round"/>
</svg>
