<svg width="24" height="24" viewBox="0 0 24 24" fill="none" xmlns="http://www.w3.org/2000/svg">
<path d="M21 14V18" stroke="#21272A" stroke-width="1.5" stroke-linecap="round" stroke-linejoin="round"/>
<path d="M21 22.01L21.01 21.9989" stroke="#21272A" stroke-width="1.5" stroke-linecap="round" stroke-linejoin="round"/>
<path d="M13 5C13 3.34315 11.6569 2 10 2C8.34315 2 7 3.34315 7 5V11C7 12.6569 8.34315 14 10 14C11.6569 14 13 12.6569 13 11V5Z" stroke="#21272A" stroke-width="1.5"/>
<path d="M3 10V11C3 14.866 6.13401 18 10 18C13.866 18 17 14.866 17 11V10" stroke="#21272A" stroke-width="1.5" stroke-linecap="round" stroke-linejoin="round"/>
<path d="M10 22H13M10 18V22V18ZM10 22H7H10Z" stroke="#21272A" stroke-width="1.5" stroke-linecap="round" stroke-linejoin="round"/>
</svg>
