<svg width="24" height="24" viewBox="0 0 24 24" fill="none" xmlns="http://www.w3.org/2000/svg">
<path d="M15.5 20.5L17.5 22.5L22.5 17.5" stroke="#21272A" stroke-width="1.5" stroke-linecap="round" stroke-linejoin="round"/>
<path d="M11 5C11 3.34315 9.65685 2 8 2C6.34315 2 5 3.34315 5 5V11C5 12.6569 6.34315 14 8 14C9.65685 14 11 12.6569 11 11V5Z" stroke="#21272A" stroke-width="1.5"/>
<path d="M1 10V11C1 14.866 4.13401 18 8 18C11.866 18 15 14.866 15 11V10" stroke="#21272A" stroke-width="1.5" stroke-linecap="round" stroke-linejoin="round"/>
<path d="M8 22H11M8 18V22V18ZM8 22H5H8Z" stroke="#21272A" stroke-width="1.5" stroke-linecap="round" stroke-linejoin="round"/>
</svg>
