<svg width="24" height="24" viewBox="0 0 24 24" fill="none" xmlns="http://www.w3.org/2000/svg">
<path d="M7 8.01001L7.01 7.9989" stroke="#21272A" stroke-width="1.5" stroke-linecap="round" stroke-linejoin="round"/>
<path d="M17 8.01001L17.01 7.9989" stroke="#21272A" stroke-width="1.5" stroke-linecap="round" stroke-linejoin="round"/>
<path d="M7 12.01L7.01 11.9989" stroke="#21272A" stroke-width="1.5" stroke-linecap="round" stroke-linejoin="round"/>
<path d="M17 12.01L17.01 11.9989" stroke="#21272A" stroke-width="1.5" stroke-linecap="round" stroke-linejoin="round"/>
<path d="M7 16.01L7.01 15.9989" stroke="#21272A" stroke-width="1.5" stroke-linecap="round" stroke-linejoin="round"/>
<path d="M17 16.01L17.01 15.9989" stroke="#21272A" stroke-width="1.5" stroke-linecap="round" stroke-linejoin="round"/>
<path d="M7 22V20M7 2H3.6C3.26863 2 3 2.26863 3 2.6V21.4C3 21.7314 3.26863 22 3.6 22H7V2ZM7 2V4V2ZM7 2H17H7ZM17 2H20.4C20.7314 2 21 2.26863 21 2.6V21.4C21 21.7314 20.7314 22 20.4 22H17V2ZM17 2V4V2ZM17 22V20V22ZM17 22H7H17Z" stroke="#21272A" stroke-width="1.5" stroke-linecap="round" stroke-linejoin="round"/>
</svg>
