<svg width="24" height="24" viewBox="0 0 24 24" fill="none" xmlns="http://www.w3.org/2000/svg">
<path d="M7.5 22C10.5376 22 13 19.5376 13 16.5C13 13.4624 10.5376 11 7.5 11C4.46243 11 2 13.4624 2 16.5C2 17.5018 2.26783 18.441 2.7358 19.25L2.275 21.725L4.75 21.2642C5.55898 21.7322 6.49821 22 7.5 22Z" stroke="#21272A" stroke-width="1.5" stroke-linecap="round" stroke-linejoin="round"/>
<path d="M15.2825 17.8978C16.2588 17.7405 17.1759 17.4065 18.0001 16.9297L21.6001 17.6L20.9298 14C21.6105 12.8233 22.0001 11.4571 22.0001 10C22.0001 5.58172 18.4184 2 14.0001 2C9.97269 2 6.64039 4.97598 6.08228 8.84884" stroke="#21272A" stroke-width="1.5" stroke-linecap="round" stroke-linejoin="round"/>
</svg>
