<svg width="24" height="24" viewBox="0 0 24 24" fill="none" xmlns="http://www.w3.org/2000/svg">
<path d="M14 11.9976C14 9.5059 11.683 7 8.85714 7C8.52241 7 7.41904 7.00001 7.14286 7.00001C4.30254 7.00001 2 9.23752 2 11.9976C2 14.376 3.70973 16.3664 6 16.8714C6.36756 16.9525 6.75006 16.9952 7.14286 16.9952" stroke="#21272A" stroke-width="1.5" stroke-linecap="round" stroke-linejoin="round"/>
<path d="M16.8572 6.99994C17.25 6.99994 17.6325 7.04273 18.0001 7.12378C20.2904 7.62879 22.0001 9.61915 22.0001 11.9976C22.0001 13.4395 21.3717 14.7388 20.3665 15.651" stroke="#21272A" stroke-width="1.5" stroke-linecap="round" stroke-linejoin="round"/>
<path d="M10.0002 11.9976C10.0002 14.4893 12.3172 16.9952 15.1431 16.9952" stroke="#21272A" stroke-width="1.5" stroke-linecap="round" stroke-linejoin="round"/>
<path d="M20.1213 20.1213L22.2426 22.2426M18 22.2426L20.1213 20.1213L18 22.2426ZM20.1213 20.1213L22.2426 18L20.1213 20.1213ZM20.1213 20.1213L18 18L20.1213 20.1213Z" stroke="#21272A" stroke-width="1.5" stroke-linecap="round" stroke-linejoin="round"/>
</svg>
