<svg width="24" height="24" viewBox="0 0 24 24" fill="none" xmlns="http://www.w3.org/2000/svg">
<g clip-path="url(#clip0_1_30012)">
<path d="M11.7703 1.09511C11.9173 1.03421 12.0825 1.03421 12.2295 1.09511L19.5485 4.12672C19.6955 4.18761 19.8123 4.30442 19.8732 4.45144L22.9048 11.7704C22.9657 11.9174 22.9657 12.0826 22.9048 12.2296L19.8732 19.5486C19.8123 19.6956 19.6955 19.8124 19.5485 19.8733L12.2295 22.9049C12.0825 22.9658 11.9173 22.9658 11.7703 22.9049L4.45132 19.8733C4.3043 19.8124 4.18749 19.6956 4.1266 19.5486L1.09499 12.2296C1.03409 12.0826 1.03409 11.9174 1.09499 11.7704L4.1266 4.45144C4.18749 4.30442 4.3043 4.18761 4.45132 4.12672L11.7703 1.09511Z" stroke="#21272A" stroke-width="1.5" stroke-linecap="round" stroke-linejoin="round"/>
</g>
<defs>
<clipPath id="clip0_1_30012">
<rect width="24" height="24" fill="white"/>
</clipPath>
</defs>
</svg>
