<svg width="24" height="24" viewBox="0 0 24 24" fill="none" xmlns="http://www.w3.org/2000/svg">
<path d="M9 18C9 18 9.9 14.2588 12 12" stroke="#21272A" stroke-width="1.5" stroke-linecap="round" stroke-linejoin="round"/>
<path d="M16.1858 7.24131L16.5602 11.1306C16.8032 13.6536 14.9115 15.9001 12.3884 16.143C9.91273 16.3814 7.67007 14.5718 7.43169 12.0962C7.19331 9.62053 9.00698 7.42038 11.4827 7.18201L15.6294 6.78272C15.9097 6.75573 16.1588 6.96105 16.1858 7.24131Z" stroke="#21272A" stroke-width="1.5" stroke-linecap="round" stroke-linejoin="round"/>
<path d="M12 22C17.5228 22 22 17.5228 22 12C22 6.47715 17.5228 2 12 2C6.47715 2 2 6.47715 2 12C2 17.5228 6.47715 22 12 22Z" stroke="#21272A" stroke-width="1.5" stroke-linecap="round" stroke-linejoin="round"/>
</svg>
