<svg width="24" height="24" viewBox="0 0 24 24" fill="none" xmlns="http://www.w3.org/2000/svg">
<path d="M5.03512 3.63328C5.01602 3.28936 5.28975 3 5.6342 3H18.3656C18.7101 3 18.9838 3.28936 18.9647 3.63328L18.0314 20.4333C18.0137 20.7512 17.7507 21 17.4323 21H14.5334C14.2292 21 13.9731 20.7723 13.9376 20.4701L12.5958 9.06507C12.5127 8.35854 11.4871 8.35854 11.404 9.06507L10.0622 20.4701C10.0267 20.7723 9.77064 21 9.46639 21H6.56753C6.24909 21 5.98612 20.7512 5.96846 20.4333L5.03512 3.63328Z" stroke="#21272A" stroke-width="1.5"/>
<path d="M5 7.5H6.5C7.60457 7.5 8.5 6.60457 8.5 5.5V3" stroke="#21272A" stroke-width="1.5"/>
<path d="M18.5 7.5H17.5C16.3954 7.5 15.5 6.60457 15.5 5.5V3" stroke="#21272A" stroke-width="1.5"/>
</svg>
