<svg width="24" height="24" viewBox="0 0 24 24" fill="none" xmlns="http://www.w3.org/2000/svg">
<path d="M7 22H17" stroke="#21272A" stroke-width="1.5" stroke-linecap="round" stroke-linejoin="round"/>
<path d="M2 17V4C2 2.89543 2.89543 2 4 2H20C21.1046 2 22 2.89543 22 4V17C22 18.1046 21.1046 19 20 19H4C2.89543 19 2 18.1046 2 17Z" stroke="#21272A" stroke-width="1.5"/>
<path d="M12.4851 6.1213L15.5455 6.88641C15.8126 6.95319 16.0011 7.19649 15.9937 7.47171C15.8176 13.9997 12 15 12 15C12 15 8.18242 13.9997 8.00632 7.47171C7.99889 7.19649 8.18741 6.95319 8.45451 6.88641L11.5149 6.1213C11.8334 6.04168 12.1666 6.04168 12.4851 6.1213Z" stroke="#21272A" stroke-width="1.5" stroke-linecap="round" stroke-linejoin="round"/>
</svg>
