<svg width="24" height="24" viewBox="0 0 24 24" fill="none" xmlns="http://www.w3.org/2000/svg">
<path d="M8 9.76001L8.01 9.7489" stroke="#21272A" stroke-width="1.5" stroke-linecap="round" stroke-linejoin="round"/>
<path d="M3 6.24992C5.5 3.25001 10.5 3.25001 13 6.25002" stroke="#21272A" stroke-width="1.5" stroke-linecap="round" stroke-linejoin="round"/>
<path d="M5 8.25002C6.5 6.24999 9.5 6.24999 11 8.25002" stroke="#21272A" stroke-width="1.5" stroke-linecap="round" stroke-linejoin="round"/>
<path d="M17.5 6.49998L20.5 9.49998M17.5 6.49998L18.5 5.49998C19.3284 4.67155 20.6716 4.67155 21.5 5.49998C22.3284 6.32841 22.3284 7.67155 21.5 8.49998L20.5 9.49998L17.5 6.49998ZM17.5 6.49998L6.69591 17.3041C6.56775 17.4322 6.47684 17.5928 6.43288 17.7686L5.5 21.5L9.23128 20.5672C9.40711 20.5232 9.56769 20.4323 9.69585 20.3041L20.5 9.49998L17.5 6.49998Z" stroke="#21272A" stroke-width="1.5" stroke-linecap="round" stroke-linejoin="round"/>
</svg>
