<svg width="24" height="24" viewBox="0 0 24 24" fill="none" xmlns="http://www.w3.org/2000/svg">
<path d="M21.0403 12.2828L21.6389 16.4731C21.8225 17.7584 20.7519 18.8752 19.46 18.746L12.1989 18.0199C12.0666 18.0067 11.9332 18.0067 11.8009 18.0199L4.53982 18.746C3.24794 18.8752 2.17731 17.7584 2.36092 16.4731L2.95952 12.2828C2.98632 12.0952 2.98632 11.9048 2.95952 11.7172L2.36092 7.5269C2.17731 6.24162 3.24794 5.12479 4.53983 5.25398L11.8009 5.98009C11.9332 5.99332 12.0666 5.99332 12.1989 5.98009L19.46 5.25398C20.7519 5.12479 21.8225 6.24162 21.6389 7.52689L21.0403 11.7172C21.0135 11.9048 21.0135 12.0952 21.0403 12.2828Z" stroke="#21272A" stroke-width="1.5" stroke-linecap="round" stroke-linejoin="round"/>
<path d="M21 6L17 9" stroke="#21272A" stroke-width="1.5" stroke-linecap="round" stroke-linejoin="round"/>
<path d="M7 15L3 18" stroke="#21272A" stroke-width="1.5" stroke-linecap="round" stroke-linejoin="round"/>
</svg>
