<svg width="24" height="24" viewBox="0 0 24 24" fill="none" xmlns="http://www.w3.org/2000/svg">
<path d="M14 9.01001L14.01 8.9989" stroke="#21272A" stroke-width="1.5" stroke-linecap="round" stroke-linejoin="round"/>
<path d="M8 8.01001L8.01 7.9989" stroke="#21272A" stroke-width="1.5" stroke-linecap="round" stroke-linejoin="round"/>
<path d="M8 14.01L8.01 13.9989" stroke="#21272A" stroke-width="1.5" stroke-linecap="round" stroke-linejoin="round"/>
<path d="M5.99996 19L2.23622 3.0041C2.13083 2.55618 2.54811 2.16122 2.98957 2.29106L19 7" stroke="#21272A" stroke-width="1.5"/>
<path d="M22.1979 8.42466C22.4323 7.48702 21.8622 6.53689 20.9246 6.30248C19.9869 6.06807 19.0368 6.63815 18.8024 7.57579C18.4105 9.14317 16.9014 11.6241 14.5752 13.9503C12.2742 16.2513 9.42706 18.1442 6.60664 18.7951C5.66489 19.0124 5.07763 19.952 5.29496 20.8937C5.51228 21.8355 6.4519 22.4227 7.39365 22.2054C11.0733 21.3563 14.4761 18.9991 17.0501 16.4252C19.5988 13.8764 21.5897 10.8573 22.1979 8.42466Z" stroke="#21272A" stroke-width="1.5" stroke-linecap="round"/>
</svg>
