<svg width="24" height="24" viewBox="0 0 24 24" fill="none" xmlns="http://www.w3.org/2000/svg">
<path d="M12 22C17.5228 22 22 17.5228 22 12C22 6.47715 17.5228 2 12 2C6.47715 2 2 6.47715 2 12C2 17.5228 6.47715 22 12 22Z" stroke="#21272A" stroke-width="1.5"/>
<path d="M16.5829 9.66667C15.8095 8.09697 14.043 7 11.9876 7C9.38854 7 7.25148 8.75408 7 11" stroke="#21272A" stroke-width="1.5" stroke-linecap="round" stroke-linejoin="round"/>
<path d="M14.4939 9.72222H16.4001C16.7315 9.72222 17.0001 9.45359 17.0001 9.12222V7.5" stroke="#21272A" stroke-width="1.5" stroke-linecap="round" stroke-linejoin="round"/>
<path d="M7.41699 13.6667C8.19046 15.6288 9.9569 17 12.0123 17C14.6114 17 16.7484 14.8074 16.9999 12" stroke="#21272A" stroke-width="1.5" stroke-linecap="round" stroke-linejoin="round"/>
<path d="M9.50618 13.6222H7.6C7.26863 13.6222 7 13.8909 7 14.2222V16.4" stroke="#21272A" stroke-width="1.5" stroke-linecap="round" stroke-linejoin="round"/>
</svg>
