<svg width="24" height="24" viewBox="0 0 24 24" fill="none" xmlns="http://www.w3.org/2000/svg">
<path d="M11 21H4C2.89543 21 2 20.1046 2 19V5C2 3.89543 2.89543 3 4 3H20C21.1046 3 22 3.89543 22 5V12" stroke="#21272A" stroke-width="1.5" stroke-linecap="round"/>
<path d="M2 7H22" stroke="#21272A" stroke-width="1.5" stroke-linecap="round" stroke-linejoin="round"/>
<path d="M5 5.01001L5.01 4.9989" stroke="#21272A" stroke-width="1.5" stroke-linecap="round" stroke-linejoin="round"/>
<path d="M8 5.01001L8.01 4.9989" stroke="#21272A" stroke-width="1.5" stroke-linecap="round" stroke-linejoin="round"/>
<path d="M11 5.01001L11.01 4.9989" stroke="#21272A" stroke-width="1.5" stroke-linecap="round" stroke-linejoin="round"/>
<path d="M21.6666 16.6667C21.0478 15.097 19.6347 14 17.9904 14C16.232 14 14.7379 15.2545 14.197 17" stroke="#21272A" stroke-width="1.5" stroke-linecap="round" stroke-linejoin="round"/>
<path d="M19.9951 16.7723H21.4001C21.7315 16.7723 22.0001 16.5036 22.0001 16.1723V14.55" stroke="#21272A" stroke-width="1.5" stroke-linecap="round" stroke-linejoin="round"/>
<path d="M14.3337 19.3333C14.9525 20.903 16.3657 22 18.01 22C19.7684 22 21.2624 20.7455 21.8033 19" stroke="#21272A" stroke-width="1.5" stroke-linecap="round" stroke-linejoin="round"/>
<path d="M16.0049 19.2277H14.6C14.2686 19.2277 14 19.4964 14 19.8277V21.45" stroke="#21272A" stroke-width="1.5" stroke-linecap="round" stroke-linejoin="round"/>
</svg>
