<svg width="24" height="24" viewBox="0 0 24 24" fill="none" xmlns="http://www.w3.org/2000/svg">
<path d="M19.0001 19L21.1214 21.1213M16.8787 21.1213L19.0001 19L16.8787 21.1213ZM21.1214 16.8787L19.0001 19L21.1214 16.8787ZM19.0001 19L16.8787 16.8787L19.0001 19Z" stroke="#21272A" stroke-width="1.5" stroke-linecap="round" stroke-linejoin="round"/>
<path d="M13 21H3.6C3.26863 21 3 20.7314 3 20.4V3.6C3 3.26863 3.26863 3 3.6 3H20.4C20.7314 3 21 3.26863 21 3.6V13" stroke="#21272A" stroke-width="1.5" stroke-linecap="round" stroke-linejoin="round"/>
<path d="M9.89768 8.51293C9.49769 8.28436 9 8.57317 9 9.03387V14.9661C9 15.4268 9.49769 15.7156 9.89768 15.487L15.0883 12.5209C15.4914 12.2906 15.4914 11.7094 15.0883 11.4791L9.89768 8.51293Z" stroke="#21272A" stroke-width="1.5" stroke-linecap="round" stroke-linejoin="round"/>
</svg>
