<svg width="24" height="24" viewBox="0 0 24 24" fill="none" xmlns="http://www.w3.org/2000/svg">
<path d="M18 5V8M15 5H18H15ZM21 5H18H21ZM18 5V2V5Z" stroke="#21272A" stroke-width="1.5" stroke-linecap="round" stroke-linejoin="round"/>
<path d="M11 17H8M11 7V2.6C11 2.26863 10.7314 2 10.4 2H3.6C3.26863 2 3 2.26863 3 2.6V21.4C3 21.7314 3.26863 22 3.6 22H10.4C10.7314 22 11 21.7314 11 21.4V17V7ZM11 7H8H11ZM11 7V12V7ZM11 12H8H11ZM11 12V17V12Z" stroke="#21272A" stroke-width="1.5" stroke-linecap="round" stroke-linejoin="round"/>
</svg>
