<svg width="24" height="24" viewBox="0 0 24 24" fill="none" xmlns="http://www.w3.org/2000/svg">
<path d="M21.7856 10H14.2142M21.9999 7C21.9999 7 22.5 3 17.9999 3C13.4998 3 13.9999 7 13.9999 7H21.9999ZM21.9999 7H13.9999H21.9999ZM21.9999 7L21.7856 10L21.9999 7ZM13.9999 7L14.2142 10L13.9999 7ZM21.7856 10L21.1989 18.2137C21.0868 19.7837 19.7805 21 18.2066 21H17.7933C16.2194 21 14.913 19.7837 14.8009 18.2137L14.2142 10H21.7856Z" stroke="#21272A" stroke-width="1.5" stroke-linecap="round" stroke-linejoin="round"/>
<path d="M9.7859 10H2.21447M10.0002 7C10.0002 7 10.5002 3 6.00018 3C1.50011 3 2.00018 7 2.00018 7H10.0002ZM10.0002 7H2.00018H10.0002ZM10.0002 7L9.7859 10L10.0002 7ZM2.00018 7L2.21447 10L2.00018 7ZM9.7859 10L9.1992 18.2137C9.08706 19.7837 7.78074 21 6.20682 21H5.79354C4.21962 21 2.9133 19.7837 2.80116 18.2137L2.21447 10H9.7859Z" stroke="#21272A" stroke-width="1.5" stroke-linecap="round" stroke-linejoin="round"/>
</svg>
