<svg width="24" height="24" viewBox="0 0 24 24" fill="none" xmlns="http://www.w3.org/2000/svg">
<path d="M11.6065 2.34187C11.8322 2.14581 12.1678 2.14581 12.3935 2.34187L14.3418 4.03448C14.4646 4.14114 14.6254 4.19339 14.7874 4.17927L17.3586 3.95513C17.6564 3.92916 17.9279 4.12643 17.9953 4.41771L18.5766 6.93227C18.6133 7.09072 18.7126 7.22751 18.852 7.31132L21.0639 8.64126C21.3201 8.79532 21.4238 9.1145 21.307 9.38973L20.2994 11.7657C20.2359 11.9155 20.2359 12.0845 20.2994 12.2343L21.307 14.6103C21.4238 14.8855 21.3201 15.2047 21.0639 15.3588L18.852 16.6887C18.7126 16.7725 18.6133 16.9093 18.5766 17.0678L17.9953 19.5823C17.9279 19.8736 17.6564 20.0709 17.3586 20.0449L14.7874 19.8208C14.6254 19.8066 14.4646 19.8589 14.3418 19.9655L12.3935 21.6582C12.1678 21.8542 11.8322 21.8542 11.6065 21.6582L9.65818 19.9655C9.53541 19.8589 9.3746 19.8066 9.21258 19.8208L6.64144 20.0449C6.34361 20.0709 6.0721 19.8736 6.00476 19.5823L5.4234 17.0678C5.38677 16.9093 5.28738 16.7725 5.148 16.6887L2.93617 15.3588C2.67995 15.2047 2.57624 14.8855 2.69297 14.6103L3.70067 12.2343C3.76416 12.0845 3.76416 11.9155 3.70067 11.7657L2.69297 9.38973C2.57624 9.1145 2.67995 8.79532 2.93617 8.64126L5.148 7.31132C5.28738 7.22751 5.38677 7.09072 5.4234 6.93227L6.00476 4.41771C6.0721 4.12643 6.34361 3.92916 6.64144 3.95513L9.21258 4.17927C9.3746 4.19339 9.53541 4.14114 9.65818 4.03448L11.6065 2.34187Z" stroke="#21272A" stroke-width="1.5"/>
<path d="M9 13L11 15L16 10" stroke="#21272A" stroke-width="1.5" stroke-linecap="round" stroke-linejoin="round"/>
</svg>
