<svg width="24" height="24" viewBox="0 0 24 24" fill="none" xmlns="http://www.w3.org/2000/svg">
<path d="M19.4287 15H4.57155M3.57155 8.00004C3.3905 6.73267 3.23415 5.63827 3.131 4.91618C3.0571 4.39889 3.39401 3.91251 3.9041 3.79916L11.5662 2.09645C11.852 2.03295 12.1482 2.03295 12.434 2.09645L20.0961 3.79916C20.6062 3.91251 20.9431 4.39889 20.8692 4.91618C20.7661 5.63827 20.6097 6.73267 20.4287 8.00004H3.57155ZM3.57155 8.00004H20.4287H3.57155ZM3.57155 8.00004C3.88009 10.1598 4.2604 12.822 4.57155 15L3.57155 8.00004ZM20.4287 8.00004C20.1201 10.1598 19.7398 12.822 19.4287 15L20.4287 8.00004ZM19.4287 15C19.2568 16.2032 19.106 17.2586 19.0001 18C18.9294 18.495 18.5001 21.5 12.0001 21.5C5.50012 21.5 5.07083 18.495 5.00012 18C4.89421 17.2586 4.74343 16.2032 4.57155 15H19.4287Z" stroke="#21272A" stroke-width="1.5" stroke-linecap="round" stroke-linejoin="round"/>
</svg>
