<svg width="24" height="24" viewBox="0 0 24 24" fill="none" xmlns="http://www.w3.org/2000/svg">
<path d="M13.5 13L15 14.5" stroke="#21272A" stroke-width="1.5" stroke-linecap="round" stroke-linejoin="round"/>
<path d="M9 11C9 12.3807 10.1193 13.5 11.5 13.5C12.1916 13.5 12.8175 13.2192 13.2701 12.7654C13.7211 12.3132 14 11.6892 14 11C14 9.61929 12.8807 8.5 11.5 8.5C10.1193 8.5 9 9.61929 9 11Z" stroke="#21272A" stroke-width="1.5" stroke-linecap="round" stroke-linejoin="round"/>
<path d="M4.9999 18L3.13026 4.91257C3.05636 4.39528 3.39379 3.91251 3.90388 3.79916L11.566 2.09645C11.8518 2.03295 12.148 2.03295 12.4338 2.09645L20.0959 3.79916C20.606 3.91251 20.9434 4.39528 20.8695 4.91256L18.9999 18C18.9292 18.495 18.4999 21.5 11.9999 21.5C5.4999 21.5 5.07061 18.495 4.9999 18Z" stroke="#21272A" stroke-width="1.5" stroke-linecap="round" stroke-linejoin="round"/>
</svg>
