<svg width="24" height="24" viewBox="0 0 24 24" fill="none" xmlns="http://www.w3.org/2000/svg">
<path d="M8 9C8 9 9 8 12 8C15 8 16 9 16 9" stroke="#21272A" stroke-width="1.5" stroke-linecap="round" stroke-linejoin="round"/>
<path d="M12 14C12.5523 14 13 13.5523 13 13C13 12.4477 12.5523 12 12 12C11.4477 12 11 12.4477 11 13C11 13.5523 11.4477 14 12 14Z" fill="#21272A" stroke="#21272A" stroke-width="1.5" stroke-linecap="round" stroke-linejoin="round"/>
<path d="M4.9999 18L3.13026 4.91257C3.05636 4.39528 3.39379 3.91251 3.90388 3.79916L11.566 2.09645C11.8518 2.03295 12.148 2.03295 12.4338 2.09645L20.0959 3.79916C20.606 3.91251 20.9434 4.39528 20.8695 4.91256L18.9999 18C18.9292 18.495 18.4999 21.5 11.9999 21.5C5.4999 21.5 5.07061 18.495 4.9999 18Z" stroke="#21272A" stroke-width="1.5" stroke-linecap="round" stroke-linejoin="round"/>
</svg>
