<svg width="24" height="24" viewBox="0 0 24 24" fill="none" xmlns="http://www.w3.org/2000/svg">
<path d="M16.5 21H18.6688C19.8945 21 20.8319 19.9074 20.6455 18.6959L19.2609 9.69589C19.1108 8.72022 18.2713 8 17.2842 8H6.71586C5.72872 8 4.88922 8.72022 4.73911 9.69589L3.3545 18.6959C3.16811 19.9074 4.10547 21 5.33124 21H7.50002" stroke="#21272A" stroke-width="1.5" stroke-linecap="round" stroke-linejoin="round"/>
<path d="M12 12L9 15M12 19V12V19ZM12 12L15 15L12 12Z" stroke="#21272A" stroke-width="1.5" stroke-linecap="round" stroke-linejoin="round"/>
<path d="M14 5C14 3.89543 13.1046 3 12 3C10.8954 3 10 3.89543 10 5" stroke="#21272A" stroke-width="1.5" stroke-linecap="round" stroke-linejoin="round"/>
</svg>
