<svg width="24" height="24" viewBox="0 0 24 24" fill="none" xmlns="http://www.w3.org/2000/svg">
<path d="M12 8L15.8043 10.7639L12 8ZM12 8L8.1958 10.7639L12 8ZM12 8V5V8ZM15.8043 10.7639L14.3512 15.2361L15.8043 10.7639ZM15.8043 10.7639L18.5 9.5L15.8043 10.7639ZM14.3512 15.2361H9.64889H14.3512ZM14.3512 15.2361L16 17.5L14.3512 15.2361ZM9.64889 15.2361L8.1958 10.7639L9.64889 15.2361ZM9.64889 15.2361L8 17.5L9.64889 15.2361ZM8.1958 10.7639L5.5 9.5L8.1958 10.7639ZM5.5 9.5L2.04938 13L5.5 9.5ZM5.5 9.5L4.5 5.38544L5.5 9.5ZM18.5 9.5L21.9506 13L18.5 9.5ZM18.5 9.5L19.5 5.38544L18.5 9.5ZM12 5L8.62434 2.58409L12 5ZM12 5L15.3757 2.58409L12 5ZM8 17.5L3.33782 17L8 17.5ZM8 17.5L10.5 21.8883L8 17.5ZM16 17.5L20.6622 17L16 17.5ZM16 17.5L13.5 21.8883L16 17.5ZM22 12C22 17.5228 17.5228 22 12 22C6.47715 22 2 17.5228 2 12C2 6.47715 6.47715 2 12 2C17.5228 2 22 6.47715 22 12Z" stroke="#21272A" stroke-width="1.5" stroke-linecap="round" stroke-linejoin="round"/>
</svg>
