<svg width="24" height="24" viewBox="0 0 24 24" fill="none" xmlns="http://www.w3.org/2000/svg">
<path d="M2 12H6" stroke="#21272A" stroke-width="1.5" stroke-linecap="round" stroke-linejoin="round"/>
<path d="M17 12H22" stroke="#21272A" stroke-width="1.5" stroke-linecap="round" stroke-linejoin="round"/>
<path d="M3 20.01L3.01 19.9989" stroke="#21272A" stroke-width="1.5" stroke-linecap="round" stroke-linejoin="round"/>
<path d="M6 16.01L6.01 15.9989" stroke="#21272A" stroke-width="1.5" stroke-linecap="round" stroke-linejoin="round"/>
<path d="M9 20.01L9.01 19.9989" stroke="#21272A" stroke-width="1.5" stroke-linecap="round" stroke-linejoin="round"/>
<path d="M12 16.01L12.01 15.9989" stroke="#21272A" stroke-width="1.5" stroke-linecap="round" stroke-linejoin="round"/>
<path d="M15 20.01L15.01 19.9989" stroke="#21272A" stroke-width="1.5" stroke-linecap="round" stroke-linejoin="round"/>
<path d="M18 16.01L18.01 15.9989" stroke="#21272A" stroke-width="1.5" stroke-linecap="round" stroke-linejoin="round"/>
<path d="M21 20.01L21.01 19.9989" stroke="#21272A" stroke-width="1.5" stroke-linecap="round" stroke-linejoin="round"/>
<path d="M9 13C9 13 9.9 9.25882 12 7" stroke="#21272A" stroke-width="1.5" stroke-linecap="round" stroke-linejoin="round"/>
<path d="M16.1858 2.24137L16.5602 6.13063C16.8032 8.65368 14.9115 10.9001 12.3884 11.143C9.91273 11.3814 7.67007 9.57189 7.43169 7.09624C7.19331 4.62059 9.00698 2.42044 11.4827 2.18207L15.6294 1.78278C15.9097 1.75579 16.1588 1.96111 16.1858 2.24137Z" stroke="#21272A" stroke-width="1.5" stroke-linecap="round" stroke-linejoin="round"/>
</svg>
