<svg width="24" height="24" viewBox="0 0 24 24" fill="none" xmlns="http://www.w3.org/2000/svg">
<path d="M5 17.5L7.4 20M12 17.5C12 19.433 13.567 21 15.5 21C17.433 21 19 19.433 19 17.5C19 15.567 17.433 14 15.5 14C13.567 14 12 15.567 12 17.5ZM12 17.5H5H12ZM5 17.5L7.4 15L5 17.5Z" stroke="#21272A" stroke-width="1.5" stroke-linecap="round" stroke-linejoin="round"/>
<path d="M5 6.5L7.4 9M12 6.5C12 8.433 13.567 10 15.5 10C17.433 10 19 8.433 19 6.5C19 4.567 17.433 3 15.5 3C13.567 3 12 4.567 12 6.5ZM12 6.5H5H12ZM5 6.5L7.4 4L5 6.5Z" stroke="#21272A" stroke-width="1.5" stroke-linecap="round" stroke-linejoin="round"/>
</svg>
