<svg width="24" height="24" viewBox="0 0 24 24" fill="none" xmlns="http://www.w3.org/2000/svg">
<path d="M16.4724 20H4.1C3.76863 20 3.5 19.7314 3.5 19.4V9.59999C3.5 9.26862 3.76863 8.99999 4.1 8.99999H6.86762C7.57015 8.99999 8.22116 8.63139 8.5826 8.02898L11.293 3.5116C11.8779 2.53687 13.2554 2.44421 13.9655 3.33185C14.3002 3.75024 14.4081 4.30634 14.2541 4.81955L13.2317 8.22758C13.1162 8.61255 13.4045 8.99999 13.8064 8.99999H18.3815C19.7002 8.99999 20.658 10.254 20.311 11.5262L18.4019 18.5262C18.1646 19.3964 17.3743 20 16.4724 20Z" stroke="#21272A" stroke-width="1.5" stroke-linecap="round"/>
<path d="M7 20V9" stroke="#21272A" stroke-width="1.5" stroke-linecap="round" stroke-linejoin="round"/>
</svg>
