<svg width="24" height="24" viewBox="0 0 24 24" fill="none" xmlns="http://www.w3.org/2000/svg">
<path d="M7.99995 20H11L9.27634 23.4472C9.10695 23.786 8.76069 24 8.38192 24H7.61798C6.8746 24 6.39111 23.2177 6.72356 22.5528L7.99995 20Z" fill="#21272A"/>
<path d="M16 20H13L14.7236 23.4472C14.893 23.786 15.2393 24 15.618 24H16.382C17.1253 24 17.6088 23.2177 17.2764 22.5528L16 20Z" fill="#21272A"/>
<path d="M15 16.01L15.01 15.9989" stroke="#21272A" stroke-width="1.5" stroke-linecap="round" stroke-linejoin="round"/>
<path d="M9 16.01L9.01 15.9989" stroke="#21272A" stroke-width="1.5" stroke-linecap="round" stroke-linejoin="round"/>
<path d="M13 6H15C17.7614 6 20 8.23858 20 11V18C20 19.1046 19.1046 20 18 20H6C4.89543 20 4 19.1046 4 18V11C4 8.23858 6.23858 6 9 6H13ZM13 6L14 2L13 6ZM14 2H17H14ZM14 2H7H14ZM16 11.7857C16 11.9041 15.9041 12 15.7857 12H8.21429C8.09594 12 8 11.9041 8 11.7857C8 10.7995 8.79949 10 9.78571 10H14.2143C15.2005 10 16 10.7995 16 11.7857Z" stroke="#21272A" stroke-width="1.5" stroke-linecap="round" stroke-linejoin="round"/>
</svg>
