<svg width="24" height="24" viewBox="0 0 24 24" fill="none" xmlns="http://www.w3.org/2000/svg">
<path d="M9 12.5929L12 15.5M2 5H9H2ZM16 5H13.5H16ZM9 5H13.5H9ZM9 5V3V5ZM13.5 5C12.6795 7.73513 10.9612 10.3206 9 12.5929L13.5 5ZM4 17.5C5.58541 16.1411 7.376 14.4744 9 12.5929L4 17.5ZM9 12.5929C8 11.5 6.4 9.3 6 8.5L9 12.5929Z" stroke="#21272A" stroke-width="1.5" stroke-linecap="round" stroke-linejoin="round"/>
<path d="M14.6429 18H20.3571M13.5 21L14.6429 18L13.5 21ZM21.5 21L20.3571 18L21.5 21ZM14.6429 18L17.5 10.5L20.3571 18H14.6429Z" stroke="#21272A" stroke-width="1.5" stroke-linecap="round" stroke-linejoin="round"/>
</svg>
