<svg width="24" height="24" viewBox="0 0 24 24" fill="none" xmlns="http://www.w3.org/2000/svg">
<path d="M11.6719 20.7858C11.8712 20.916 12.1286 20.916 12.3279 20.7858L21.6115 14.7239C21.8402 14.5745 21.9392 14.2894 21.8522 14.0304L18.2847 3.40896C18.2027 3.16462 17.9737 3 17.716 3H6.22047C5.96158 3 5.73188 3.16606 5.65072 3.4119L2.14456 14.032C2.05927 14.2904 2.15848 14.5738 2.38627 14.7225L11.6719 20.7858Z" stroke="#21272A" stroke-width="1.5" stroke-linecap="round" stroke-linejoin="round"/>
<path d="M14.5 6H10L9.5 11C10.0187 10.1033 10.9882 9.5 12.0987 9.5C13.7555 9.5 15.0987 10.8431 15.0987 12.5C15.0987 13.327 14.764 14.0758 14.2228 14.6185C13.6797 15.163 12.9285 15.5 12.0987 15.5C10.9882 15.5 10.0187 14.8967 9.5 14" stroke="#21272A" stroke-width="1.5" stroke-linecap="round" stroke-linejoin="round"/>
</svg>
