<svg width="24" height="24" viewBox="0 0 24 24" fill="none" xmlns="http://www.w3.org/2000/svg">
<path d="M9 11C11.2091 11 13 9.20914 13 7C13 4.79086 11.2091 3 9 3C6.79086 3 5 4.79086 5 7C5 9.20914 6.79086 11 9 11Z" stroke="#21272A" stroke-width="1.5" stroke-linecap="round" stroke-linejoin="round"/>
<path d="M2 18C2 14.134 5.13401 11 9 11C10.635 11 12.1391 11.5606 13.3306 12.5" stroke="#21272A" stroke-width="1.5" stroke-linecap="round" stroke-linejoin="round"/>
<path d="M21.3639 16.7069L21.6602 18.7069C21.8392 19.915 20.9031 21 19.6818 21H16.318C15.0967 21 14.1606 19.915 14.3396 18.7069L14.6359 16.7069C14.7812 15.7262 15.623 15 16.6143 15H19.3855C20.3768 15 21.2186 15.7262 21.3639 16.7069Z" stroke="#21272A" stroke-width="1.5" stroke-linecap="round" stroke-linejoin="round"/>
<path d="M17 13H19" stroke="#21272A" stroke-width="1.5" stroke-linecap="round" stroke-linejoin="round"/>
</svg>
