<svg width="24" height="24" viewBox="0 0 24 24" fill="none" xmlns="http://www.w3.org/2000/svg">
<path d="M21 3.6V20.4C21 20.7314 20.7314 21 20.4 21H3.6C3.26863 21 3 20.7314 3 20.4V3.6C3 3.26863 3.26863 3 3.6 3H20.4C20.7314 3 21 3.26863 21 3.6Z" stroke="#21272A" stroke-width="1.5" stroke-linecap="round" stroke-linejoin="round"/>
<path d="M14.5 10.5C12.75 12.3824 11 17 11 17C11 17 8.5 10.5 6 9" stroke="#21272A" stroke-width="1.5" stroke-linecap="round" stroke-linejoin="round"/>
<path d="M18.0156 6.73005L18.3122 9.81002C18.5046 11.8081 17.0065 13.5871 15.0084 13.7795C13.0479 13.9683 11.2719 12.5352 11.0831 10.5747C10.8943 8.6142 12.3306 6.87186 14.2911 6.68308L17.575 6.36688C17.797 6.34551 17.9942 6.50811 18.0156 6.73005Z" stroke="#21272A" stroke-width="1.5" stroke-linecap="round" stroke-linejoin="round"/>
</svg>
