<svg width="24" height="24" viewBox="0 0 24 24" fill="none" xmlns="http://www.w3.org/2000/svg">
<path d="M14.5 11.5C12.75 13.3824 11 18 11 18C11 18 8.5 11.5 6 10" stroke="#21272A" stroke-width="1.5" stroke-linecap="round" stroke-linejoin="round"/>
<path d="M18.0156 7.73005L18.3122 10.81C18.5046 12.8081 17.0065 14.5871 15.0084 14.7795C13.0479 14.9683 11.2719 13.5352 11.0831 11.5747C10.8943 9.6142 12.3306 7.87186 14.2911 7.68308L17.575 7.36688C17.797 7.34551 17.9942 7.50811 18.0156 7.73005Z" stroke="#21272A" stroke-width="1.5" stroke-linecap="round" stroke-linejoin="round"/>
<path d="M12 22C17.5228 22 22 17.5228 22 12C22 6.47715 17.5228 2 12 2C6.47715 2 2 6.47715 2 12C2 17.5228 6.47715 22 12 22Z" stroke="#21272A" stroke-width="1.5" stroke-linecap="round" stroke-linejoin="round"/>
</svg>
