<svg width="24" height="24" viewBox="0 0 24 24" fill="none" xmlns="http://www.w3.org/2000/svg">
<path d="M2 20V19C2 15.134 5.13401 12 9 12" stroke="#21272A" stroke-width="1.5" stroke-linecap="round" stroke-linejoin="round"/>
<path d="M15.8037 12.3134C16.4455 11.6087 17.5543 11.6087 18.1961 12.3134C18.5205 12.6696 18.9867 12.8627 19.4679 12.8402C20.42 12.7957 21.2041 13.5798 21.1596 14.5319C21.1371 15.0131 21.3302 15.4793 21.6864 15.8037C22.3911 16.4455 22.3911 17.5543 21.6864 18.1961C21.3302 18.5205 21.1371 18.9867 21.1596 19.4679C21.2041 20.42 20.42 21.2041 19.4679 21.1596C18.9867 21.1371 18.5205 21.3302 18.1961 21.6864C17.5543 22.3911 16.4455 22.3911 15.8037 21.6864C15.4793 21.3302 15.0131 21.1371 14.5319 21.1596C13.5798 21.2041 12.7957 20.42 12.8402 19.4679C12.8627 18.9867 12.6696 18.5205 12.3134 18.1961C11.6087 17.5543 11.6087 16.4455 12.3134 15.8037C12.6696 15.4793 12.8627 15.0131 12.8402 14.5319C12.7957 13.5798 13.5798 12.7957 14.5319 12.8402C15.0131 12.8627 15.4793 12.6696 15.8037 12.3134Z" stroke="#21272A" stroke-width="1.5"/>
<path d="M15.3635 17.0001L16.4545 18.091L18.6363 15.9092" stroke="#21272A" stroke-width="1.5" stroke-linecap="round" stroke-linejoin="round"/>
<path d="M9 12C11.2091 12 13 10.2091 13 8C13 5.79086 11.2091 4 9 4C6.79086 4 5 5.79086 5 8C5 10.2091 6.79086 12 9 12Z" stroke="#21272A" stroke-width="1.5" stroke-linecap="round" stroke-linejoin="round"/>
</svg>
